<?xml version="1.0" encoding="utf-8"?>
<!-- Generator: Adobe Illustrator 22.0.1, SVG Export Plug-In . SVG Version: 6.00 Build 0)  -->
<svg version="1.1" id="Layer_1" xmlns="http://www.w3.org/2000/svg" xmlns:xlink="http://www.w3.org/1999/xlink" x="0px" y="0px"
	 viewBox="0 0 512 512" enable-background="new 0 0 512 512" xml:space="preserve">
<g id="Layer_1_1_">
	<g>
		<path fill="#3880FF" d="M256,139.3c-64.3,0-116.7,52.3-116.7,116.7c0,64.3,52.3,116.7,116.7,116.7S372.7,320.3,372.7,256
			S320.3,139.3,256,139.3z"/>
		<g>
			<circle fill="#3880FF" cx="423.5" cy="96.5" r="53.2"/>
		</g>
		<path fill="#3880FF" d="M489,149.9l-2.2-4.9l-3.6,4c-8.7,9.9-19.8,17.5-32.1,22.1l-3.4,1.3l1.4,3.3c10.6,25.5,16,52.5,16,80.2
			c0,115.3-93.8,209.2-209.2,209.2S46.8,371.3,46.8,256S140.7,46.8,256,46.8c31.3,0,61.5,6.8,89.6,20.2l3.3,1.6l1.4-3.3
			c5.1-12,13.3-22.7,23.6-31l4.2-3.4l-4.8-2.5C336.8,9.6,297.3,0,256,0C114.8,0,0,114.8,0,256s114.8,256,256,256s256-114.8,256-256
			C512,219.1,504.3,183.4,489,149.9z"/>
	</g>
</g>
<g id="Layer_2_1_">
</g>
<g id="Layer_3">
</g>
</svg>
