<svg id="Layer_1" data-name="Layer 1" xmlns="http://www.w3.org/2000/svg" xmlns:xlink="http://www.w3.org/1999/xlink" viewBox="0 0 105.73 63.44"><defs><style>.cls-1{fill:url(#linear-gradient);}</style><linearGradient id="linear-gradient" x1="-815.24" y1="1096.18" x2="-814.22" y2="1095.82" gradientTransform="matrix(105.73, 0, 0, -63.44, 86195.26, 69560.61)" gradientUnits="userSpaceOnUse"><stop offset="0" stop-color="#2298bd"/><stop offset="1" stop-color="#0ed7b5"/></linearGradient></defs><title>tailwindcss-icon</title><path class="cls-1" d="M52.87,0Q31.72,0,26.43,21.15q7.93-10.57,18.51-7.93c4,1,6.89,3.92,10.07,7.15C60.2,25.63,66.2,31.72,79.3,31.72q21.15,0,26.43-21.15-7.92,10.58-18.5,7.93c-4-1-6.9-3.92-10.08-7.15C72,6.09,66,0,52.87,0ZM26.43,31.72Q5.3,31.72,0,52.87,7.94,42.3,18.5,44.94c4,1,6.9,3.92,10.08,7.15,5.18,5.26,11.18,11.35,24.29,11.35Q74,63.44,79.3,42.29q-7.93,10.58-18.5,7.93c-4-1-6.9-3.92-10.08-7.15C45.54,37.81,39.54,31.72,26.43,31.72Z"/></svg>